<svg xmlns="http://www.w3.org/2000/svg" width="130" height="239.031" viewBox="0 0 130 239.031">
  <metadata><?xpacket begin="﻿" id="W5M0MpCehiHzreSzNTczkc9d"?>
<x:xmpmeta xmlns:x="adobe:ns:meta/" x:xmptk="Adobe XMP Core 5.6-c142 79.160924, 2017/07/13-01:06:39        ">
   <rdf:RDF xmlns:rdf="http://www.w3.org/1999/02/22-rdf-syntax-ns#">
      <rdf:Description rdf:about=""/>
   </rdf:RDF>
</x:xmpmeta>
<?xpacket end="w"?></metadata>
<defs>
    <style type="text/css">
      .cls-1 {
        fill: #7fcef4;
        fill-rule: evenodd;
      }
    </style>
  </defs>
  <path id="LOGO" class="cls-1" d="M1134.61,511.156c2.24,0.686,58.1,17.759,59.41,18.16a2.647,2.647,0,0,1,2.12,2.681v12.185c0,13.737,3.38,17.915,6.3,26.525a39.755,39.755,0,0,1,2.3,12.175c0,0.41-.01,1.563-0.03,1.965a33.455,33.455,0,0,1-3.57,12.817c-3.91,7.158-7.92,10.273-8.3,22.68a2.524,2.524,0,0,1-1.76,2.318l-56.81,17.345a2.509,2.509,0,0,1-3.26-2.4v-9.059c0-30.616,4.98-34.541,8.48-46.3a68.153,68.153,0,0,0,3.44-17.541,54.24,54.24,0,0,0-2.55-17.668c-3.08-10.446-8.37-16.23-9.01-33.4-0.07-1.718,1-3.168,3.24-2.481m84.38,102.988c1.35-.409,34.8-10.633,35.58-10.875a1.579,1.579,0,0,0,1.27-1.605v-7.3c0-8.226,2.02-10.728,3.77-15.884a23.706,23.706,0,0,0,1.38-7.291c0-.246-0.01-0.937-0.02-1.177a20.008,20.008,0,0,0-2.14-7.675c-2.34-4.288-4.74-6.153-4.97-13.582a1.5,1.5,0,0,0-1.05-1.388l-34.02-10.387a1.508,1.508,0,0,0-1.96,1.433v5.426c0,18.335,2.99,20.686,5.09,27.728a40.818,40.818,0,0,1,2.05,10.506,32.56,32.56,0,0,1-1.52,10.579c-1.85,6.257-5.01,9.72-5.4,20a1.374,1.374,0,0,0,1.94,1.486m-78.11,135.8h-2.59a0.31,0.31,0,0,1-.31-0.307V730.793a0.31,0.31,0,0,1,.31-0.308h10.76a0.319,0.319,0,0,1,.32.308v2.512a0.318,0.318,0,0,1-.32.307h-7.87l0.02,5.064,7.41-.021a0.32,0.32,0,0,1,.32.31v2.509a0.32,0.32,0,0,1-.32.31h-7.43l0.02,7.855a0.313,0.313,0,0,1-.32.307m38.66-.153h-10.03a0.308,0.308,0,0,1-.31-0.306V730.774a0.31,0.31,0,0,1,.31-0.308h2.6a0.31,0.31,0,0,1,.31.308v15.918l7.12-.027a0.309,0.309,0,0,1,.31.306v2.516a0.308,0.308,0,0,1-.31.306m-19.52.153h-2.5a0.309,0.309,0,0,1-.31-0.305V730.774a0.31,0.31,0,0,1,.31-0.308h2.5a0.31,0.31,0,0,1,.31.308v18.867a0.309,0.309,0,0,1-.31.305m35.75-68.83h-2.17a0.311,0.311,0,0,1-.31-0.31v-14.36l-5.67,8.075a0.3,0.3,0,0,1-.27.142,0.321,0.321,0,0,1-.27-0.142l-5.7-8.063v14.348a0.311,0.311,0,0,1-.31.31h-2.14a0.32,0.32,0,0,1-.32-0.31V661.9a0.32,0.32,0,0,1,.32-0.31h2.18a0.312,0.312,0,0,1,.27.151l5.99,8.562,5.95-8.562a0.324,0.324,0,0,1,.27-0.151h2.18a0.313,0.313,0,0,1,.32.31v18.9a0.313,0.313,0,0,1-.32.31m7.35,68.873h-2.17a0.318,0.318,0,0,1-.32-0.308V735.319l-5.66,8.077a0.329,0.329,0,0,1-.54,0l-5.7-8.061v14.348a0.309,0.309,0,0,1-.31.308h-2.14a0.312,0.312,0,0,1-.32-0.308v-18.9a0.314,0.314,0,0,1,.32-0.311h2.18a0.323,0.323,0,0,1,.27.154l5.98,8.56,5.96-8.562a0.325,0.325,0,0,1,.27-0.152h2.18a0.32,0.32,0,0,1,.32.311v18.9a0.318,0.318,0,0,1-.32.308m5.27-68.873h-2.49a0.311,0.311,0,0,1-.31-0.31V661.9a0.311,0.311,0,0,1,.31-0.31h2.49a0.313,0.313,0,0,1,.32.31v18.9a0.313,0.313,0,0,1-.32.31m38.37-16.064-2.57,7.426,5.2-.009-2.63-7.417m8.31,16.064h-2.41a0.3,0.3,0,0,1-.29-0.206l-1.96-5.38-7.29.014-1.93,5.369a0.329,0.329,0,0,1-.3.2h-2.41a0.311,0.311,0,0,1-.3-0.412l6.87-18.9a0.328,0.328,0,0,1,.3-0.206h2.85a0.328,0.328,0,0,1,.3.206l6.87,18.9a0.284,0.284,0,0,1-.04.28,0.311,0.311,0,0,1-.26.132m-53.92,34.437h-2.49a0.314,0.314,0,0,1-.32-0.31V696.624a0.312,0.312,0,0,1,.32-0.308h2.49a0.31,0.31,0,0,1,.31.308v18.619a0.312,0.312,0,0,1-.31.31m52.9,0h-2.5a0.312,0.312,0,0,1-.31-0.31v-18.9a0.312,0.312,0,0,1,.31-0.31h2.5a0.312,0.312,0,0,1,.31.31v18.9a0.312,0.312,0,0,1-.31.31m-21.44-34.437h-3.16a0.322,0.322,0,0,1-.25-0.118l-7.54-9.268,0.03,9.076a0.311,0.311,0,0,1-.31.31h-2.59a0.32,0.32,0,0,1-.32-0.31V661.9a0.32,0.32,0,0,1,.32-0.31h2.59a0.311,0.311,0,0,1,.31.31v8.115l7.45-8.321a0.3,0.3,0,0,1,.23-0.1h3.3a0.309,0.309,0,0,1,.24.513l-7.95,8.83,7.89,9.677a0.3,0.3,0,0,1,.04.327,0.308,0.308,0,0,1-.28.175m-41.7,34.437h-3.16a0.314,0.314,0,0,1-.25-0.119l-7.54-9.267,0.04,9.076a0.32,0.32,0,0,1-.32.31h-2.59a0.312,0.312,0,0,1-.31-0.31v-18.9a0.312,0.312,0,0,1,.31-0.31h2.59a0.32,0.32,0,0,1,.32.31v8.115l7.44-8.321a0.336,0.336,0,0,1,.24-0.1h3.3a0.328,0.328,0,0,1,.29.184,0.309,0.309,0,0,1-.06.33l-7.95,8.829,7.9,9.678a0.317,0.317,0,0,1,.04.324,0.334,0.334,0,0,1-.29.178m-22.51-.024h-11.31a0.309,0.309,0,0,1-.31-0.308V696.364a0.311,0.311,0,0,1,.31-0.31h10.87a0.32,0.32,0,0,1,.32.31v2.509a0.32,0.32,0,0,1-.32.308h-7.98l0.01,4.786,7.38-.023a0.313,0.313,0,0,1,.32.31v2.509a0.312,0.312,0,0,1-.32.308h-7.39l0.01,5.355,8.41-.024a0.32,0.32,0,0,1,.32.31v2.509a0.318,0.318,0,0,1-.32.308m67.06,0.452a7.058,7.058,0,0,1-2.51-.44c-2.84-1.073-4.47-3.939-4.47-7.864V696.34a0.314,0.314,0,0,1,.32-0.31h2.58a0.314,0.314,0,0,1,.32.31v11.337c0,4.671,2.63,5.177,3.76,5.177s3.76-.506,3.76-5.177V696.34a0.312,0.312,0,0,1,.31-0.31h2.59a0.312,0.312,0,0,1,.31.31v11.337c0,3.925-1.62,6.791-4.46,7.864a7.1,7.1,0,0,1-2.51.44m-71.98-34.439a7.085,7.085,0,0,1-2.5-.435c-2.85-1.075-4.47-3.942-4.47-7.867V661.856a0.257,0.257,0,0,1,.26-0.262h2.69a0.266,0.266,0,0,1,.27.26V673.24c0,4.671,2.63,5.175,3.75,5.175s3.76-.5,3.76-5.175V661.854a0.263,0.263,0,0,1,.26-0.26h2.71a0.252,0.252,0,0,1,.25.255V673.24c0,3.925-1.63,6.792-4.47,7.867a7.1,7.1,0,0,1-2.51.435m-20.32.22a7.388,7.388,0,0,1-.95-0.059,8.291,8.291,0,0,1-5.53-3.167,0.393,0.393,0,0,1,.1-0.552l2.06-1.434a0.385,0.385,0,0,1,.52.083,4.948,4.948,0,0,0,3.25,1.818,3.584,3.584,0,0,0,2.81-.727,2.268,2.268,0,0,0,.67-0.94c0.47-1.43,0-2.462-3.96-4.457-1.68-.848-5.62-2.836-4.85-7.036a5.4,5.4,0,0,1,4.31-4.3,7.381,7.381,0,0,1,7.25,2.424,0.383,0.383,0,0,1-.08.553l-2.02,1.487a0.384,0.384,0,0,1-.52-0.066,4.148,4.148,0,0,0-3.89-1.207,2.222,2.222,0,0,0-1.83,1.692c-0.2,1.108.25,2.081,3.11,3.525,2.51,1.267,7.18,3.622,5.59,8.411a5.464,5.464,0,0,1-1.62,2.374,6.686,6.686,0,0,1-4.42,1.574m0,34.437a8.093,8.093,0,0,1-.95-0.057,8.262,8.262,0,0,1-5.53-3.177,0.385,0.385,0,0,1,.09-0.539l2.08-1.445a0.366,0.366,0,0,1,.5.083,5,5,0,0,0,3.26,1.826,3.571,3.571,0,0,0,2.81-.732,2.247,2.247,0,0,0,.67-0.937c0.48-1.43,0-2.46-3.95-4.458-1.69-.847-5.62-2.836-4.86-7.035a5.41,5.41,0,0,1,4.31-4.3,7.38,7.38,0,0,1,7.26,2.431,0.378,0.378,0,0,1-.07.542l-2.04,1.5a0.38,0.38,0,0,1-.51-0.063,4.144,4.144,0,0,0-3.9-1.213,2.207,2.207,0,0,0-1.82,1.691c-0.2,1.107.24,2.083,3.1,3.525,2.51,1.266,7.18,3.621,5.59,8.413a5.432,5.432,0,0,1-1.62,2.369,6.678,6.678,0,0,1-4.42,1.577m72.11,0a7.8,7.8,0,0,1-.94-0.057,8.258,8.258,0,0,1-5.53-3.167,0.385,0.385,0,0,1,.09-0.554l2.06-1.435a0.383,0.383,0,0,1,.52.083,4.964,4.964,0,0,0,3.25,1.821,3.571,3.571,0,0,0,2.81-.732,2.247,2.247,0,0,0,.67-0.937c0.48-1.43.01-2.46-3.95-4.458-1.69-.847-5.62-2.836-4.86-7.035a5.41,5.41,0,0,1,4.31-4.3,7.391,7.391,0,0,1,7.26,2.424,0.385,0.385,0,0,1-.08.554l-2.03,1.489a0.388,0.388,0,0,1-.52-0.071,4.146,4.146,0,0,0-3.89-1.2,2.207,2.207,0,0,0-1.82,1.691c-0.2,1.107.24,2.083,3.1,3.525,2.51,1.266,7.18,3.621,5.59,8.413a5.432,5.432,0,0,1-1.62,2.369,6.678,6.678,0,0,1-4.42,1.577" transform="translate(-1131 -510.969)"/>
</svg>
