<?xml version="1.0" encoding="UTF-8" standalone="no"?>
<!-- Created with Inkscape (http://www.inkscape.org/) -->

<svg
   xmlns:dc="http://purl.org/dc/elements/1.1/"
   xmlns:cc="http://creativecommons.org/ns#"
   xmlns:rdf="http://www.w3.org/1999/02/22-rdf-syntax-ns#"
   xmlns:svg="http://www.w3.org/2000/svg"
   xmlns="http://www.w3.org/2000/svg"
   xmlns:sodipodi="http://sodipodi.sourceforge.net/DTD/sodipodi-0.dtd"
   xmlns:inkscape="http://www.inkscape.org/namespaces/inkscape"
   width="245.94934"
   height="47.115952"
   viewBox="0 0 65.074096 12.466095"
   version="1.1"
   id="svg8716"
   inkscape:version="0.92.0 r15299"
   sodipodi:docname="daito trust construction.svg">
  <defs
     id="defs8710" />
  <sodipodi:namedview
     id="base"
     pagecolor="#ffffff"
     bordercolor="#666666"
     borderopacity="1.0"
     inkscape:pageopacity="0.0"
     inkscape:pageshadow="2"
     inkscape:zoom="2.0138417"
     inkscape:cx="114.2402"
     inkscape:cy="-65.548687"
     inkscape:document-units="mm"
     inkscape:current-layer="layer1"
     showgrid="false"
     fit-margin-top="0"
     fit-margin-left="0"
     fit-margin-right="0"
     fit-margin-bottom="0"
     units="px"
     inkscape:window-width="1280"
     inkscape:window-height="744"
     inkscape:window-x="-4"
     inkscape:window-y="-4"
     inkscape:window-maximized="1" />
  <metadata
     id="metadata8713">
    <rdf:RDF>
      <cc:Work
         rdf:about="">
        <dc:format>image/svg+xml</dc:format>
        <dc:type
           rdf:resource="http://purl.org/dc/dcmitype/StillImage" />
        <dc:title></dc:title>
      </cc:Work>
    </rdf:RDF>
  </metadata>
  <g
     inkscape:label="Layer 1"
     inkscape:groupmode="layer"
     id="layer1"
     transform="translate(46.451783,-119.02416)">
    <path
       inkscape:connector-curvature="0"
       id="path6270"
       style="fill:#ffffff;fill-opacity:1;fill-rule:nonzero;stroke:none;stroke-width:0.35277778"
       d="M 46.295961,181.98263 1.6981481,156.23373 v -0.22295 l -0.1880306,0.10865 -0.037042,-0.0642 69.9251405,-40.37118 v 0.002 l -0.140053,0.0808 0.140053,0.0808 v 51.64172 -51.45969 l -69.5501378,40.15493 44.5653578,25.72985 -0.117475,0.0677" />
    <g
       id="g9057"
       transform="translate(0.26458171,-0.26457602)">
      <path
         d="m -32.297619,123.58731 h 0.529519 c 0.84455,0 1.025173,0.48719 1.025173,1.10949 0,0.6223 -0.180623,1.10948 -1.025173,1.10948 h -0.529519 z m -0.538339,2.66241 h 1.274586 c 0.947561,0 1.357136,-0.69567 1.357136,-1.55292 0,-0.85725 -0.409575,-1.55293 -1.357136,-1.55293 h -1.274586"
         style="fill:#231f20;fill-opacity:1;fill-rule:nonzero;stroke:none;stroke-width:0.35277778"
         id="path6964"
         inkscape:connector-curvature="0" />
      <path
         d="m -28.886611,123.67904 h 0.01305 l 0.46108,1.33562 h -0.939094 z m -1.455561,2.57104 h 0.555272 l 0.288572,-0.82232 h 1.227667 l 0.288572,0.82232 h 0.577497 l -1.18498,-3.1062 h -0.572558"
         style="fill:#231f20;fill-opacity:1;fill-rule:nonzero;stroke:none;stroke-width:0.35277778"
         id="path6968"
         inkscape:connector-curvature="0" />
      <path
         inkscape:connector-curvature="0"
         id="path6970"
         style="fill:#231f20;fill-opacity:1;fill-rule:nonzero;stroke:none;stroke-width:0.35277778"
         d="m -27.11214,126.25009 h 0.53834 v -3.10625 h -0.53834 z" />
      <path
         d="m -26.250673,123.14387 h 2.489553 v 0.46955 h -0.9779 v 2.63666 h -0.538692 v -2.63666 h -0.972961"
         style="fill:#231f20;fill-opacity:1;fill-rule:nonzero;stroke:none;stroke-width:0.35277778"
         id="path6974"
         inkscape:connector-curvature="0" />
      <path
         d="m -22.352831,123.5136 c 0.658989,0 0.934508,0.58737 0.934508,1.18322 0,0.59584 -0.275519,1.18321 -0.934508,1.18321 -0.659342,0 -0.934861,-0.58737 -0.934861,-1.18321 0,-0.59585 0.275519,-1.18322 0.934861,-1.18322 m 0,-0.44379 c -0.921808,0 -1.4732,0.73942 -1.4732,1.62701 0,0.88759 0.551392,1.62701 1.4732,1.62701 0.921103,0 1.4732,-0.73942 1.4732,-1.62701 0,-0.88759 -0.552097,-1.62701 -1.4732,-1.62701"
         style="fill:#231f20;fill-opacity:1;fill-rule:nonzero;stroke:none;stroke-width:0.35277778"
         id="path6978"
         inkscape:connector-curvature="0" />
      <path
         d="m -19.499564,123.14387 h 2.490258 v 0.46955 h -0.9779 v 2.63666 h -0.538339 v -2.63666 h -0.974019"
         style="fill:#231f20;fill-opacity:1;fill-rule:nonzero;stroke:none;stroke-width:0.35277778"
         id="path6982"
         inkscape:connector-curvature="0" />
      <path
         d="m -16.156289,123.58731 h 0.874183 c 0.2794,0 0.534106,0.0787 0.534106,0.47449 0,0.32632 -0.185914,0.49565 -0.525992,0.49565 h -0.882297 z m -0.538692,2.66241 h 0.538692 v -1.27882 h 0.792339 c 0.4953,0 0.611364,0.25224 0.611364,0.82198 0,0.15275 0,0.32244 0.08184,0.45684 h 0.577497 c -0.116416,-0.12559 -0.168275,-0.45684 -0.168275,-0.81774 0,-0.49141 -0.271286,-0.63076 -0.456494,-0.65687 v -0.009 c 0.09878,-0.0346 0.508353,-0.18732 0.508353,-0.78281 0,-0.5267 -0.345017,-0.83961 -1.016706,-0.83961 h -1.468614"
         style="fill:#231f20;fill-opacity:1;fill-rule:nonzero;stroke:none;stroke-width:0.35277778"
         id="path6986"
         inkscape:connector-curvature="0" />
      <path
         d="m -13.95567,123.14387 h 0.537986 v 1.8094 c 0,0.41804 0.02575,0.90099 0.722842,0.90099 0.6985,0 0.723547,-0.48295 0.723547,-0.90099 v -1.8094 h 0.538692 v 1.9879 c 0,0.79622 -0.503061,1.19239 -1.262239,1.19239 -0.757061,0 -1.260828,-0.39617 -1.260828,-1.19239"
         style="fill:#231f20;fill-opacity:1;fill-rule:nonzero;stroke:none;stroke-width:0.35277778"
         id="path6990"
         inkscape:connector-curvature="0" />
      <path
         d="m -10.631075,125.21468 c 0,0.47837 0.348544,0.66534 0.7792861,0.66534 0.4741333,0 0.6505222,-0.2346 0.6505222,-0.46955 0,-0.23953 -0.1294694,-0.33514 -0.254,-0.38311 -0.2151944,-0.0825 -0.4956528,-0.13935 -0.9175753,-0.25647 -0.525639,-0.14358 -0.680155,-0.46567 -0.680155,-0.7874 0,-0.62195 0.567972,-0.9137 1.1239498,-0.9137 0.6417027,0 1.1796888,0.34361 1.1796888,0.99201 h -0.5379861 c -0.026105,-0.40005 -0.2931583,-0.54821 -0.663575,-0.54821 -0.2494135,0 -0.5637385,0.0914 -0.5637385,0.40463 0,0.21767 0.14605,0.33937 0.36583,0.40005 0.04763,0.0131 0.7277808,0.19156 0.8875891,0.23919 0.4042833,0.12206 0.5983111,0.4699 0.5983111,0.79198 0,0.69603 -0.6113639,0.97473 -1.2234333,0.97473 -0.7016749,0 -1.2703529,-0.33938 -1.2830529,-1.10949"
         style="fill:#231f20;fill-opacity:1;fill-rule:nonzero;stroke:none;stroke-width:0.35277778"
         id="path6994"
         inkscape:connector-curvature="0" />
      <path
         d="m -8.6583412,123.14387 h 2.4895527 v 0.46955 h -0.9779 v 2.63666 h -0.5386916 v -2.63666 h -0.9729611"
         style="fill:#231f20;fill-opacity:1;fill-rule:nonzero;stroke:none;stroke-width:0.35277778"
         id="path6998"
         inkscape:connector-curvature="0" />
      <path
         d="m -30.794442,128.24504 c -0.09031,-0.35631 -0.318206,-0.61701 -0.766233,-0.61701 -0.659342,0 -0.934861,0.58702 -0.934861,1.18322 0,0.59619 0.275519,1.18321 0.934861,1.18321 0.478366,0 0.740833,-0.36089 0.783872,-0.81385 h 0.525286 c -0.04339,0.74436 -0.564444,1.25765 -1.309158,1.25765 -0.921809,0 -1.4732,-0.73942 -1.4732,-1.62701 0,-0.88759 0.551391,-1.62737 1.4732,-1.62737 0.693208,0.005 1.240366,0.39194 1.304572,1.06116"
         style="fill:#231f20;fill-opacity:1;fill-rule:nonzero;stroke:none;stroke-width:0.35277778"
         id="path7002"
         inkscape:connector-curvature="0" />
      <path
         d="m -28.537361,127.62803 c 0.658636,0 0.934156,0.58702 0.934156,1.18322 0,0.59619 -0.27552,1.18321 -0.934156,1.18321 -0.658989,0 -0.934861,-0.58702 -0.934861,-1.18321 0,-0.5962 0.275872,-1.18322 0.934861,-1.18322 m 0,-0.44415 c -0.921808,0 -1.4732,0.73978 -1.4732,1.62737 0,0.88759 0.551392,1.62701 1.4732,1.62701 0.921103,0 1.472494,-0.73942 1.472494,-1.62701 0,-0.88759 -0.551391,-1.62737 -1.472494,-1.62737"
         style="fill:#231f20;fill-opacity:1;fill-rule:nonzero;stroke:none;stroke-width:0.35277778"
         id="path7006"
         inkscape:connector-curvature="0" />
      <path
         d="m -26.76714,127.25832 h 0.568325 l 1.404056,2.28812 h 0.0085 v -2.28812 h 0.512939 v 3.10621 h -0.568678 l -1.400175,-2.28424 h -0.01235 v 2.28424 h -0.512586"
         style="fill:#231f20;fill-opacity:1;fill-rule:nonzero;stroke:none;stroke-width:0.35277778"
         id="path7010"
         inkscape:connector-curvature="0" />
      <path
         d="m -23.412567,129.32877 c 0,0.47801 0.34925,0.66569 0.779286,0.66569 0.474486,0 0.650875,-0.23495 0.650875,-0.4699 0,-0.23918 -0.129117,-0.33514 -0.254,-0.38276 -0.214842,-0.0829 -0.4953,-0.1397 -0.917222,-0.25682 -0.526345,-0.14358 -0.680508,-0.46532 -0.680508,-0.7874 0,-0.6223 0.568325,-0.9137 1.12395,-0.9137 0.64135,0 1.180041,0.34396 1.180041,0.99201 h -0.538691 c -0.02575,-0.40005 -0.292806,-0.54786 -0.66287,-0.54786 -0.249767,0 -0.564444,0.0914 -0.564444,0.40393 0,0.21766 0.146755,0.33972 0.36583,0.4004 0.04763,0.0131 0.728486,0.19156 0.887589,0.23954 0.404989,0.12171 0.598664,0.4699 0.598664,0.79198 0,0.69568 -0.611364,0.97438 -1.223081,0.97438 -0.70238,0 -1.270352,-0.33938 -1.283405,-1.10949"
         style="fill:#231f20;fill-opacity:1;fill-rule:nonzero;stroke:none;stroke-width:0.35277778"
         id="path7014"
         inkscape:connector-curvature="0" />
      <path
         d="m -21.353765,127.25832 h 2.489553 v 0.46919 h -0.977547 v 2.63702 h -0.537987 v -2.63702 h -0.974019"
         style="fill:#231f20;fill-opacity:1;fill-rule:nonzero;stroke:none;stroke-width:0.35277778"
         id="path7018"
         inkscape:connector-curvature="0" />
      <path
         d="m -18.011177,127.70142 h 0.874536 c 0.279753,0 0.533753,0.0787 0.533753,0.47484 0,0.32632 -0.185208,0.49565 -0.525286,0.49565 h -0.883003 z m -0.537986,2.66312 h 0.537986 v -1.27917 h 0.792339 c 0.4953,0 0.611717,0.25259 0.611717,0.82232 0,0.1524 0,0.32174 0.08184,0.45685 h 0.577144 c -0.116063,-0.12665 -0.168275,-0.45685 -0.168275,-0.81809 0,-0.49177 -0.27058,-0.63112 -0.456494,-0.65687 v -0.009 c 0.09948,-0.0349 0.508706,-0.18698 0.508706,-0.78317 0,-0.52634 -0.345017,-0.83926 -1.016706,-0.83926 h -1.468261"
         style="fill:#231f20;fill-opacity:1;fill-rule:nonzero;stroke:none;stroke-width:0.35277778"
         id="path7022"
         inkscape:connector-curvature="0" />
      <path
         d="m -15.723775,127.25832 h 0.537281 v 1.80975 c 0,0.41734 0.02681,0.90029 0.724252,0.90029 0.698148,0 0.7239,-0.48295 0.7239,-0.90029 v -1.80975 h 0.537634 v 1.9879 c 0,0.79622 -0.50412,1.19204 -1.261534,1.19204 -0.758119,0 -1.261533,-0.39582 -1.261533,-1.19204"
         style="fill:#231f20;fill-opacity:1;fill-rule:nonzero;stroke:none;stroke-width:0.35277778"
         id="path7026"
         inkscape:connector-curvature="0" />
      <path
         d="m -10.676583,128.24504 c -0.09102,-0.35631 -0.318911,-0.61701 -0.766939,-0.61701 -0.658636,0 -0.934155,0.58702 -0.934155,1.18322 0,0.59619 0.275519,1.18321 0.934155,1.18321 0.478014,0 0.740833,-0.36089 0.783872,-0.81385 h 0.525286 c -0.04269,0.74436 -0.563738,1.25765 -1.309158,1.25765 -0.921808,0 -1.472494,-0.73942 -1.472494,-1.62701 0,-0.88759 0.550686,-1.62737 1.472494,-1.62737 0.693914,0.005 1.241072,0.39194 1.304925,1.06116"
         style="fill:#231f20;fill-opacity:1;fill-rule:nonzero;stroke:none;stroke-width:0.35277778"
         id="path7030"
         inkscape:connector-curvature="0" />
      <path
         d="m -10.022189,127.25832 h 2.4895527 v 0.46919 h -0.9779 v 2.63702 h -0.5379861 v -2.63702 h -0.9736666"
         style="fill:#231f20;fill-opacity:1;fill-rule:nonzero;stroke:none;stroke-width:0.35277778"
         id="path7034"
         inkscape:connector-curvature="0" />
      <path
         inkscape:connector-curvature="0"
         id="path7036"
         style="fill:#231f20;fill-opacity:1;fill-rule:nonzero;stroke:none;stroke-width:0.35277778"
         d="m -7.2182992,130.36453 h 0.538689 v -3.10617 h -0.538689 z" />
      <path
         d="m -4.8836102,127.62803 c 0.6589889,0 0.9345083,0.58702 0.9345083,1.18322 0,0.59619 -0.2755194,1.18321 -0.9345083,1.18321 -0.6589889,0 -0.9348611,-0.58702 -0.9348611,-1.18321 0,-0.5962 0.2758722,-1.18322 0.9348611,-1.18322 m 0,-0.44415 c -0.9218083,0 -1.4735527,0.73978 -1.4735527,1.62737 0,0.88759 0.5517444,1.62701 1.4735527,1.62701 0.9221611,0 1.4728472,-0.73942 1.4728472,-1.62701 0,-0.88759 -0.5506861,-1.62737 -1.4728472,-1.62737"
         style="fill:#231f20;fill-opacity:1;fill-rule:nonzero;stroke:none;stroke-width:0.35277778"
         id="path7040"
         inkscape:connector-curvature="0" />
      <path
         d="m -3.1137332,127.25832 h 0.5686778 l 1.4040555,2.28812 h 0.00847 v -2.28812 h 0.51258606 v 3.10621 H -1.1882721 l -1.400175,-2.28424 h -0.0127 v 2.28424 h -0.5125861"
         style="fill:#231f20;fill-opacity:1;fill-rule:nonzero;stroke:none;stroke-width:0.35277778"
         id="path7044"
         inkscape:connector-curvature="0" />
      <path
         d="m 3.4200728,128.24504 c -0.090311,-0.35631 -0.3185583,-0.61701 -0.7662333,-0.61701 -0.6593417,0 -0.9348611,0.58702 -0.9348611,1.18322 0,0.59619 0.2755194,1.18321 0.9348611,1.18321 0.4783666,0 0.7408333,-0.36089 0.7838722,-0.81385 h 0.5252861 c -0.043039,0.74436 -0.5640917,1.25765 -1.3091583,1.25765 -0.9218083,0 -1.4732,-0.73942 -1.4732,-1.62701 0,-0.88759 0.5513917,-1.62737 1.4732,-1.62737 0.6932083,0.005 1.2403666,0.39194 1.304925,1.06116"
         style="fill:#231f20;fill-opacity:1;fill-rule:nonzero;stroke:none;stroke-width:0.35277778"
         id="path7048"
         inkscape:connector-curvature="0" />
      <path
         d="m 5.6764398,127.62803 c 0.6593417,0 0.9352139,0.58702 0.9352139,1.18322 0,0.59619 -0.2758722,1.18321 -0.9352139,1.18321 -0.6586361,0 -0.9341555,-0.58702 -0.9341555,-1.18321 0,-0.5962 0.2755194,-1.18322 0.9341555,-1.18322 m 0,-0.44415 c -0.9211028,0 -1.4724944,0.73978 -1.4724944,1.62737 0,0.88759 0.5513916,1.62701 1.4724944,1.62701 0.9221611,0 1.4739055,-0.73942 1.4739055,-1.62701 0,-0.88759 -0.5517444,-1.62737 -1.4739055,-1.62737"
         style="fill:#231f20;fill-opacity:1;fill-rule:nonzero;stroke:none;stroke-width:0.35277778"
         id="path7052"
         inkscape:connector-curvature="0" />
      <path
         inkscape:connector-curvature="0"
         id="path7054"
         style="fill:#231f20;fill-opacity:1;fill-rule:nonzero;stroke:none;stroke-width:0.35277778"
         d="m 7.3239098,130.36453 h 0.597601 v -0.58773 h -0.597601 z" />
      <path
         d="m 8.1762228,129.77679 h 0.5983111 v 0.58773 c -0.00353,0.35666 -0.2405944,0.61771 -0.581025,0.68721 v -0.26564 c 0.1894417,-0.0473 0.2843389,-0.23495 0.2797528,-0.42157 H 8.1762228"
         style="fill:#231f20;fill-opacity:1;fill-rule:nonzero;stroke:none;stroke-width:0.35277778"
         id="path7058"
         inkscape:connector-curvature="0" />
      <path
         d="m 10.031825,127.25832 h 0.538692 v 2.63631 h 1.563511 v 0.4699 h -2.102203"
         style="fill:#231f20;fill-opacity:1;fill-rule:nonzero;stroke:none;stroke-width:0.35277778"
         id="path7062"
         inkscape:connector-curvature="0" />
      <path
         d="m 11.823928,127.25832 h 2.489553 v 0.46919 h -0.9779 v 2.63702 h -0.538339 v -2.63702 h -0.973314"
         style="fill:#231f20;fill-opacity:1;fill-rule:nonzero;stroke:none;stroke-width:0.35277778"
         id="path7066"
         inkscape:connector-curvature="0" />
      <path
         d="m 15.209536,127.70142 h 0.529519 c 0.843845,0 1.025173,0.48754 1.025173,1.10984 0,0.62195 -0.181328,1.10948 -1.025173,1.10948 h -0.529519 z m -0.538339,2.66312 h 1.274586 c 0.947209,0 1.356784,-0.69638 1.356784,-1.55328 0,-0.8569 -0.409575,-1.55293 -1.356784,-1.55293 h -1.274586"
         style="fill:#231f20;fill-opacity:1;fill-rule:nonzero;stroke:none;stroke-width:0.35277778"
         id="path7070"
         inkscape:connector-curvature="0" />
      <path
         inkscape:connector-curvature="0"
         id="path7072"
         style="fill:#231f20;fill-opacity:1;fill-rule:nonzero;stroke:none;stroke-width:0.35277778"
         d="m 17.49484,130.36453 h 0.59831 v -0.58773 h -0.59831 z" />
      <path
         d="m -42.394834,120.54286 v 2.07786 c -0.569736,0.74965 -1.198739,1.69192 -1.198739,2.65748 0,0.9532 0.562328,1.68839 1.557867,1.68839 1.928636,0 4.725811,-2.67723 4.725811,-4.87504 0,-0.65299 -0.335845,-0.97966 -0.7493,-0.97966 -1.458384,0 -2.977445,2.39818 -3.2766,3.83681 -0.07232,0.3489 -0.394053,0.66005 -0.85972,0.66005 -0.465313,0 -0.929922,-0.41028 -0.788458,-1.07985 0.465667,-2.21439 2.6543,-4.97558 5.235222,-4.97558 1.461911,0 2.207684,0.93274 2.207684,2.40806 0,3.26072 -3.413831,6.75393 -6.53415,6.75393 -2.348089,0 -3.157009,-1.64818 -3.157009,-3.19723 0,-2.2299 1.608314,-4.05623 2.837392,-4.97522"
         style="fill:#da1f3d;fill-opacity:1;fill-rule:nonzero;stroke:none;stroke-width:0.35277778"
         id="path7076"
         inkscape:connector-curvature="0" />
      <path
         inkscape:connector-curvature="0"
         id="path7078"
         style="fill:#58595b;fill-opacity:1;fill-rule:nonzero;stroke:none;stroke-width:0.35277778"
         d="m -46.45177,130.36453 h 4.03648 v -0.93945 h -4.03648 z" />
      <path
         inkscape:connector-curvature="0"
         id="path7080"
         style="fill:#58595b;fill-opacity:1;fill-rule:nonzero;stroke:none;stroke-width:0.35277778"
         d="m -41.65576,130.36453 h 2.75802 v -0.93945 h -2.75802 z" />
      <path
         d="m -36.013084,130.84113 v 0.63112 h 0.320322 v -0.0896 h -0.245533 v -0.54151"
         style="fill:#231f20;fill-opacity:1;fill-rule:nonzero;stroke:none;stroke-width:0.35277778"
         id="path7084"
         inkscape:connector-curvature="0" />
      <path
         d="m -36.69182,130.84113 v 0.63112 h 0.07832 v -0.27764 h 0.215547 v -0.0903 H -36.6135 v -0.17356 h 0.244475 v -0.0896"
         style="fill:#231f20;fill-opacity:1;fill-rule:nonzero;stroke:none;stroke-width:0.35277778"
         id="path7088"
         inkscape:connector-curvature="0" />
      <path
         d="m -37.899034,130.84113 v 0.63112 h 0.346075 v -0.0896 h -0.270933 v -0.19826 h 0.237419 v -0.0864 h -0.237419 v -0.16721 h 0.261055 v -0.0896"
         style="fill:#231f20;fill-opacity:1;fill-rule:nonzero;stroke:none;stroke-width:0.35277778"
         id="path7092"
         inkscape:connector-curvature="0" />
      <path
         d="m -37.973461,131.28917 c 0,0.18344 -0.140406,0.20073 -0.183444,0.20073 -0.156281,0 -0.189442,-0.11465 -0.195792,-0.19085 h 0.07197 c 0.006,0.0416 0.02611,0.10442 0.117122,0.10442 0.05503,0 0.117828,-0.0173 0.117828,-0.097 0,-0.0593 -0.04269,-0.0766 -0.101248,-0.0981 l -0.05221,-0.0166 c -0.07197,-0.0212 -0.147108,-0.042 -0.147108,-0.18027 0,-0.0663 0.02999,-0.18732 0.176389,-0.18732 0.133703,0 0.173214,0.10654 0.179916,0.1838 h -0.07232 c -0.0063,-0.0349 -0.02611,-0.0974 -0.113947,-0.0974 -0.04586,0 -0.09842,0.0243 -0.09842,0.0931 0,0.0593 0.03598,0.0737 0.06209,0.0808 l 0.117827,0.0413 c 0.06209,0.0173 0.121356,0.0519 0.121356,0.16334"
         style="fill:#231f20;fill-opacity:1;fill-rule:nonzero;stroke:none;stroke-width:0.35277778"
         id="path7096"
         inkscape:connector-curvature="0" />
      <path
         d="m -38.418676,131.25777 c 0,0.16298 -0.07444,0.23213 -0.188736,0.23213 -0.04269,0 -0.10407,-0.0134 -0.146756,-0.073 -0.02293,-0.0374 -0.03316,-0.0907 -0.03598,-0.15204 v -0.42369 h 0.07867 v 0.41346 c 0,0.10406 0.04833,0.14463 0.101248,0.14463 0.07796,0 0.1143,-0.048 0.1143,-0.13829 v -0.4198 h 0.07726"
         style="fill:#231f20;fill-opacity:1;fill-rule:nonzero;stroke:none;stroke-width:0.35277778"
         id="path7100"
         inkscape:connector-curvature="0" />
      <path
         d="m -39.508071,130.84113 v 0.63112 h 0.346781 v -0.0896 h -0.271287 v -0.19826 h 0.23742 v -0.0864 h -0.23742 v -0.16721 h 0.260703 v -0.0896"
         style="fill:#231f20;fill-opacity:1;fill-rule:nonzero;stroke:none;stroke-width:0.35277778"
         id="path7104"
         inkscape:connector-curvature="0" />
      <path
         d="m -39.589192,130.8415 -0.160514,0.63112 h -0.07373 l -0.160514,-0.63112 h 0.08149 l 0.107245,0.49953 h 0.02046 l 0.106892,-0.49953"
         style="fill:#231f20;fill-opacity:1;fill-rule:nonzero;stroke:none;stroke-width:0.35277778"
         id="path7108"
         inkscape:connector-curvature="0" />
      <path
         inkscape:connector-curvature="0"
         id="path7110"
         style="fill:#231f20;fill-opacity:1;fill-rule:nonzero;stroke:none;stroke-width:0.35277778"
         d="m -40.14375,131.47261 h 0.0744 v -0.63109 h -0.0744 z" />
      <path
         d="m -40.225965,130.93074 h -0.147108 v 0.54151 h -0.07761 v -0.54151 h -0.146756 v -0.0896 h 0.371475"
         style="fill:#231f20;fill-opacity:1;fill-rule:nonzero;stroke:none;stroke-width:0.35277778"
         id="path7114"
         inkscape:connector-curvature="0" />
      <path
         d="m -40.636598,131.02917 h -0.07585 c -0.0095,-0.0455 -0.03528,-0.11501 -0.12065,-0.11501 -0.05221,0 -0.133703,0.0452 -0.133703,0.24624 0,0.12489 0.04233,0.23919 0.133703,0.23919 0.06244,0 0.104775,-0.0448 0.12065,-0.12489 h 0.07585 c -0.02011,0.12912 -0.08855,0.21555 -0.196497,0.21555 -0.126647,0 -0.21202,-0.11501 -0.21202,-0.33337 0,-0.21837 0.09243,-0.33267 0.21202,-0.33267 0.13088,0 0.186972,0.11782 0.196497,0.20496"
         style="fill:#231f20;fill-opacity:1;fill-rule:nonzero;stroke:none;stroke-width:0.35277778"
         id="path7118"
         inkscape:connector-curvature="0" />
      <path
         d="m -41.439503,130.84113 v 0.63112 h 0.348897 v -0.0896 h -0.274108 v -0.19826 h 0.238125 v -0.0864 h -0.238125 v -0.16721 h 0.261408 v -0.0896"
         style="fill:#231f20;fill-opacity:1;fill-rule:nonzero;stroke:none;stroke-width:0.35277778"
         id="path7122"
         inkscape:connector-curvature="0" />
      <path
         d="m -41.834261,130.84113 v 0.63112 h 0.07796 v -0.27764 h 0.215547 v -0.0903 h -0.215547 v -0.17356 h 0.248003 v -0.0896"
         style="fill:#231f20;fill-opacity:1;fill-rule:nonzero;stroke:none;stroke-width:0.35277778"
         id="path7126"
         inkscape:connector-curvature="0" />
      <path
         d="m -42.22902,130.84113 v 0.63112 h 0.07444 v -0.27764 h 0.2159 v -0.0903 h -0.2159 v -0.17356 h 0.248003 v -0.0896"
         style="fill:#231f20;fill-opacity:1;fill-rule:nonzero;stroke:none;stroke-width:0.35277778"
         id="path7130"
         inkscape:connector-curvature="0" />
      <path
         d="m -42.650236,130.84113 v 0.63112 h 0.346428 v -0.0896 h -0.270934 v -0.19826 h 0.23742 v -0.0864 h -0.23742 v -0.16721 h 0.261056 v -0.0896"
         style="fill:#231f20;fill-opacity:1;fill-rule:nonzero;stroke:none;stroke-width:0.35277778"
         id="path7134"
         inkscape:connector-curvature="0" />
      <path
         d="m -43.05489,131.47261 h -0.04198 l -0.01305,-0.1076 c -0.04269,0.0698 -0.07867,0.12524 -0.163689,0.12524 -0.110067,0 -0.21202,-0.11077 -0.21202,-0.32985 0,-0.17356 0.06915,-0.3362 0.228953,-0.3362 0.133703,0 0.189442,0.11113 0.198967,0.19439 h -0.07514 c -0.01023,-0.0349 -0.04939,-0.10795 -0.121355,-0.10795 -0.07761,0 -0.1524,0.0691 -0.1524,0.24976 0,0.19438 0.08079,0.23919 0.155927,0.23919 0.02611,0 0.107598,-0.01 0.133703,-0.16934 h -0.117828 v -0.0843 h 0.179917"
         style="fill:#231f20;fill-opacity:1;fill-rule:nonzero;stroke:none;stroke-width:0.35277778"
         id="path7138"
         inkscape:connector-curvature="0" />
      <path
         d="m -43.570642,131.47261 h -0.08079 l -0.199672,-0.46849 h -0.02222 v 0.46849 h -0.07197 v -0.63112 h 0.08855 l 0.191206,0.45791 h 0.02716 v -0.45791 h 0.06773"
         style="fill:#231f20;fill-opacity:1;fill-rule:nonzero;stroke:none;stroke-width:0.35277778"
         id="path7142"
         inkscape:connector-curvature="0" />
      <path
         inkscape:connector-curvature="0"
         id="path7144"
         style="fill:#231f20;fill-opacity:1;fill-rule:nonzero;stroke:none;stroke-width:0.35277778"
         d="m -44.15448,131.47261 h 0.0748 v -0.63109 h -0.0748 z" />
      <path
         d="m -44.285017,131.25777 c 0,0.16298 -0.07197,0.23213 -0.189794,0.23213 -0.04163,0 -0.104423,-0.0134 -0.142875,-0.073 -0.02716,-0.0374 -0.03704,-0.0907 -0.03704,-0.15204 v -0.42369 h 0.07902 v 0.41346 c 0,0.10406 0.04621,0.14463 0.100895,0.14463 0.07902,0 0.111125,-0.048 0.111125,-0.13829 v -0.4198 h 0.07867"
         style="fill:#231f20;fill-opacity:1;fill-rule:nonzero;stroke:none;stroke-width:0.35277778"
         id="path7148"
         inkscape:connector-curvature="0" />
      <path
         d="m -44.739042,131.28917 c 0,0.18344 -0.1397,0.20073 -0.179211,0.20073 -0.159808,0 -0.192617,-0.11465 -0.198967,-0.19085 h 0.07232 c 0.006,0.0416 0.0254,0.10442 0.117122,0.10442 0.05574,0 0.117122,-0.0173 0.117122,-0.097 0,-0.0593 -0.03916,-0.0766 -0.09772,-0.0981 l -0.05539,-0.0166 c -0.07197,-0.0212 -0.143228,-0.042 -0.143228,-0.18027 0,-0.0663 0.02575,-0.18732 0.172155,-0.18732 0.134056,0 0.173214,0.10654 0.179564,0.1838 h -0.07091 c -0.0071,-0.0349 -0.02364,-0.0974 -0.114653,-0.0974 -0.04551,0 -0.09807,0.0243 -0.09807,0.0931 0,0.0593 0.03598,0.0737 0.06209,0.0808 l 0.12065,0.0413 c 0.05856,0.0173 0.117122,0.0519 0.117122,0.16334"
         style="fill:#231f20;fill-opacity:1;fill-rule:nonzero;stroke:none;stroke-width:0.35277778"
         id="path7152"
         inkscape:connector-curvature="0" />
      <path
         d="m -45.665798,131.25777 c 0,0.16298 -0.07161,0.23213 -0.188383,0.23213 -0.04304,0 -0.105128,-0.0134 -0.143934,-0.073 -0.02611,-0.0374 -0.03563,-0.0907 -0.03563,-0.15204 v -0.42369 h 0.07761 v 0.41346 c 0,0.10406 0.04621,0.14463 0.101953,0.14463 0.07761,0 0.110772,-0.048 0.110772,-0.13829 v -0.4198 h 0.07761"
         style="fill:#231f20;fill-opacity:1;fill-rule:nonzero;stroke:none;stroke-width:0.35277778"
         id="path7156"
         inkscape:connector-curvature="0" />
      <path
         d="m -34.786131,131.47261 h -0.07867 l -0.201789,-0.46849 h -0.02293 v 0.46849 h -0.06879 v -0.63112 h 0.08537 l 0.195791,0.45791 h 0.02222 v -0.45791 h 0.06879"
         style="fill:#231f20;fill-opacity:1;fill-rule:nonzero;stroke:none;stroke-width:0.35277778"
         id="path7160"
         inkscape:connector-curvature="0" />
      <path
         d="m -35.226398,131.47261 h -0.08184 l -0.03281,-0.13511 h -0.201436 l -0.03316,0.13511 h -0.07796 l 0.166158,-0.63112 h 0.09772 z m -0.137231,-0.2219 -0.06526,-0.28786 h -0.02328 l -0.06809,0.28786"
         style="fill:#231f20;fill-opacity:1;fill-rule:nonzero;stroke:none;stroke-width:0.35277778"
         id="path7164"
         inkscape:connector-curvature="0" />
      <path
         d="m -36.770507,131.15688 c 0,0.29492 -0.159456,0.33302 -0.221192,0.33302 -0.06279,0 -0.22225,-0.0381 -0.22225,-0.33302 0,-0.29492 0.159456,-0.33267 0.22225,-0.33267 0.06174,0 0.221192,0.0378 0.221192,0.33267 m -0.07373,0 c 0,-0.19791 -0.0889,-0.24271 -0.147461,-0.24271 -0.05927,0 -0.147108,0.0448 -0.147108,0.24271 0,0.19791 0.08784,0.24236 0.147108,0.24236 0.05856,0 0.147461,-0.0444 0.147461,-0.24236"
         style="fill:#231f20;fill-opacity:1;fill-rule:nonzero;stroke:none;stroke-width:0.35277778"
         id="path7168"
         inkscape:connector-curvature="0" />
      <path
         d="m -45.17579,131.4765 v -0.004 h -0.09172 c -0.0035,-0.0275 -0.006,-0.0617 -0.006,-0.11783 0,-0.10407 -0.01023,-0.13829 -0.09455,-0.13829 h -0.117828 v 0.25612 h -0.07585 v -0.63112 h 0.236361 c 0.119945,0 0.140053,0.12135 0.140053,0.17286 0,0.066 -0.02293,0.12135 -0.09172,0.15346 0.05891,0.0381 0.07867,0.055 0.07867,0.16968 0,0.0977 0.0064,0.12841 0.02258,0.13935 m -0.08537,-0.44767 c 0,-0.0423 -0.01235,-0.1009 -0.08396,-0.1009 h -0.140759 v 0.20461 h 0.133703 c 0.06174,0 0.09102,-0.031 0.09102,-0.10371"
         style="fill:#231f20;fill-opacity:1;fill-rule:nonzero;stroke:none;stroke-width:0.35277778"
         id="path7172"
         inkscape:connector-curvature="0" />
      <path
         d="m -46.10289,131.03869 c 0,0.0554 -0.02293,0.19473 -0.143581,0.19473 h -0.129822 v 0.23919 h -0.07549 v -0.63148 h 0.208491 c 0.08925,0 0.140406,0.0766 0.140406,0.19756 m -0.07444,-0.007 c 0,-0.073 -0.03281,-0.10372 -0.104775,-0.10372 h -0.09419 v 0.22154 h 0.106892 c 0.08855,0 0.09208,-0.0832 0.09208,-0.11782"
         style="fill:#231f20;fill-opacity:1;fill-rule:nonzero;stroke:none;stroke-width:0.35277778"
         id="path7176"
         inkscape:connector-curvature="0" />
      <path
         d="m -34.290117,131.14312 c 0,0.13159 -0.03986,0.32949 -0.192264,0.32949 H -34.6817 v -0.63111 h 0.202141 c 0.159809,0 0.189442,0.18026 0.189442,0.30162 m -0.07937,0.007 c 0,-0.20814 -0.07973,-0.2219 -0.126647,-0.2219 h -0.110067 v 0.4579 h 0.110067 c 0.09243,0 0.126647,-0.11853 0.126647,-0.236"
         style="fill:#231f20;fill-opacity:1;fill-rule:nonzero;stroke:none;stroke-width:0.35277778"
         id="path7180"
         inkscape:connector-curvature="0" />
    </g>
  </g>
</svg>
